#!OML:ASF X:\für Bonn\!DataBase\2005_08_11_Bastian_Final\c3d\Bastian.ASF
:FULLY-SPECIFIED
:DEGREES
92
root 5.43006 16.5833 -17.9167 126.969 -5.51037 -184.029
lowerback 42.8055 10.1164 10.7777
upperback 21.6133 7.74034 -1.45296
thorax 5.82342 1.18663 -9.60118
lowerneck 12.5318 -14.4986 -8.85876
upperneck 0.498348 -21.6077 21.2035
head 1.44442 -11.6482 7.82384
rclavicle 2.78299e-015 -6.36111e-015
rhumerus 15.2495 22.1121 -75.9772
rradius 115.961
rwrist 5.42496
rhand -16.6423 3.60613
rfingers 7.12502
rthumb 9.58052 -26.156
lclavicle 2.78299e-015 -6.36111e-015
lhumerus -35.5138 -18.0002 80.3731
lradius 76.2091
lwrist 29.2727
lhand -18.1527 -32.5481
lfingers 7.12502
lthumb 8.12293 -2.72419
rfemur 32.7887 3.60618 21.8247
rtibia 35.2317
rfoot -7.36583 -1.8966
rtoes 3.37691
lfemur -72.1529 9.84024 -18.2532
ltibia 101.321
lfoot 14.7236 -15.3046
ltoes -38.9745
93
root 5.42604 16.5981 -18.0333 126.665 -4.94003 -184.85
lowerback 43.0053 10.7235 10.6301
upperback 21.9731 8.14454 -1.71045
thorax 6.28514 1.30626 -9.94042
lowerneck 12.586 -14.4365 -9.20386
upperneck 0.815192 -21.6293 21.333
head 1.58279 -11.6532 7.89683
rclavicle -7.196e-014 7.79236e-014
rhumerus 15.3555 21.6904 -75.9375
rradius 116.516
rwrist 5.68897
rhand -16.836 3.5707
rfingers 7.12502
rthumb 9.39363 -26.2
lclavicle -7.196e-014 7.79236e-014
lhumerus -36.1236 -17.0001 79.9796
lradius 72.9497
lwrist 27.9497
lhand -18.5296 -33.5777
lfingers 7.12502
lthumb 7.75922 -3.7401
rfemur 33.7848 4.44206 21.8031
rtibia 34.6942
rfoot -7.37506 -1.90973
rtoes 4.05478
lfemur -73.3306 8.73357 -17.607
ltibia 94.5822
lfoot 14.0891 -13.3556
ltoes -41.7876
94
root 5.41746 16.6033 -18.1563 126.353 -4.47022 -185.699
lowerback 43.2303 11.2951 10.4574
upperback 22.2746 8.51623 -2.01143
thorax 6.67072 1.41303 -10.3081
lowerneck 12.7997 -14.3451 -9.57169
upperneck 1.15677 -21.6329 21.4549
head 1.70163 -11.6591 7.98836
rclavicle 3.57812e-014 -1.41535e-013
rhumerus 15.2958 21.1879 -76.048
rradius 117.046
rwrist 5.98742
rhand -17.162 3.53646
rfingers 7.12502
rthumb 9.07904 -26.2481
lclavicle 3.57812e-014 -1.41535e-013
lhumerus -36.6423 -16.1494 79.7071
lradius 69.2514
lwrist 26.3608
lhand -18.7339 -34.5682
lfingers 7.12502
lthumb 7.56199 -4.72337
rfemur 34.7816 5.32952 21.7815
rtibia 34.2318
rfoot -7.40953 -2.06162
rtoes 4.34679
lfemur -73.86 7.83577 -16.921
ltibia 87.381
lfoot 13.1654 -11.6021
ltoes -44.4121
95
root 5.41178 16.6327 -18.2579 126.068 -4.07149 -186.524
lowerback 43.4048 11.8295 10.2654
upperback 22.5569 8.84459 -2.31906
thorax 7.04023 1.50104 -10.6627
lowerneck 13.1417 -14.2476 -9.88981
upperneck 1.47366 -21.6103 21.4613
head 1.77058 -11.6555 8.05606
rclavicle 3.69739e-014 -5.24792e-014
rhumerus 15.2228 20.6497 -76.2288
rradius 117.454
rwrist 6.29859
rhand -17.5859 3.43174
rfingers 7.12502
rthumb 8.66999 -26.3702
lclavicle 3.69739e-014 -5.24792e-014
lhumerus -37.084 -15.4179 79.5898
lradius 65.3029
lwrist 24.5335
lhand -18.8183 -35.2655
lfingers 7.12502
lthumb 7.48058 -5.41777
rfemur 35.7318 6.13518 21.6909
rtibia 33.6584
rfoot -7.32205 -2.21558
rtoes 4.3855
lfemur -73.8719 7.02923 -16.0727
ltibia 79.8318
lfoot 12.1748 -9.83809
ltoes -44.5855
96
root 5.41276 16.6933 -18.3244 125.79 -3.69901 -187.277
lowerback 42.3065 0.508515 -0.955829
upperback 20.4436 13.8163 -7.4925
thorax 4.99556 13.5712 -11.2479
lowerneck 13.6508 -14.1244 -10.2948
upperneck 1.77134 -21.5628 21.4029
head 1.80569 -11.6462 8.13553
rclavicle 1.27222e-014 6.52014e-014
rhumerus 15.1583 20.0742 -76.3467
rradius 117.749
rwrist 6.6385
rhand -17.9993 3.24054
rfingers 7.12502
rthumb 8.27105 -26.5775
lclavicle 1.27222e-014 6.52014e-014
lhumerus -37.4845 -14.7606 79.7213
lradius 61.086
lwrist 22.4742
lhand -18.8323 -35.7308
lfingers 7.12502
lthumb 7.46701 -5.88262
rfemur 36.6208 6.7315 21.4531
rtibia 32.8705
rfoot -6.98215 -2.1586
rtoes 4.36799
lfemur -73.4895 6.10563 -14.8015
ltibia 72.1078
lfoot 10.7926 -7.62017
ltoes -42.1036
97
root 5.41284 16.7429 -18.3919 125.485 -3.31799 -187.9
lowerback 42.3385 0.734757 -1.33561
upperback 20.5223 14.187 -7.82958
thorax 5.21217 13.8643 -11.4867
lowerneck 14.21 -14.0127 -10.6943
upperneck 2.06081 -21.5225 21.2438
head 1.82061 -11.6389 8.18864
rclavicle -1.98785e-014 8.74653e-014
rhumerus 15.075 19.4134 -76.4097
rradius 117.881
rwrist 6.94208
rhand -18.4091 3.02911
rfingers 7.12502
rthumb 7.8755 -26.8042
lclavicle -1.98785e-014 8.74653e-014
lhumerus -37.8606 -14.1958 80.1027
lradius 56.7544
lwrist 20.3398
lhand -18.7443 -35.9167
lfingers 7.12502
lthumb 7.55194 -6.07156
rfemur 37.5482 7.03512 21.0527
rtibia 31.8805
rfoot -6.52376 -1.81529
rtoes 4.53448
lfemur -72.72 5.01472 -13.0793
ltibia 64.2253
lfoot 9.41761 -5.09071
ltoes -39.4575
